<?xml version="1.0" standalone="no"?>
<!DOCTYPE svg PUBLIC "-//W3C//DTD SVG 20010904//EN"
 "http://www.w3.org/TR/2001/REC-SVG-20010904/DTD/svg10.dtd">
<svg version="1.0" xmlns="http://www.w3.org/2000/svg"
 width="327.000000pt" height="304.000000pt" viewBox="0 0 327.000000 304.000000"
 preserveAspectRatio="xMidYMid meet">
<metadata>
Created by potrace 1.15, written by Peter Selinger 2001-2017
</metadata>
<g transform="translate(0.000000,304.000000) scale(0.100000,-0.100000)"
fill="#000000" stroke="none">
<path d="M473 2613 c6 -21 44 -135 85 -253 91 -268 224 -659 317 -940 l72
-214 -13 -56 c-7 -30 -24 -107 -36 -170 -12 -63 -24 -105 -26 -92 -2 13 -14
27 -28 32 -13 5 -24 16 -24 25 0 8 -5 15 -11 15 -6 0 -8 -8 -5 -17 3 -10 17
-54 30 -98 41 -132 88 -266 92 -262 3 3 0 35 -6 73 -13 79 -6 145 15 138 9 -4
17 8 25 38 27 98 46 150 55 152 11 1 59 -119 134 -334 162 -469 200 -573 201
-548 0 4 -7 37 -16 74 -22 96 -23 212 -3 244 9 14 24 66 33 115 69 364 301
705 629 926 163 109 311 170 521 214 67 15 125 30 129 34 12 12 -3 40 -26 47
-22 7 -22 7 -2 15 42 16 154 10 310 -17 l30 -5 -30 17 c-16 10 -68 30 -115 45
-236 75 -642 229 -647 245 -2 5 19 16 47 23 42 11 51 17 48 33 -2 12 -18 29
-36 38 -31 17 -32 19 -12 25 30 10 187 8 242 -3 62 -12 52 2 -15 21 -109 32
-228 68 -242 73 -10 4 -15 0 -15 -11 0 -9 9 -19 20 -22 20 -5 28 -23 11 -23
-23 0 -192 -33 -235 -45 -64 -19 -103 -19 -157 1 -39 14 -327 114 -734 255
-77 26 -210 73 -295 104 -85 31 -189 67 -230 81 -41 14 -80 30 -86 35 -10 8
-10 2 -1 -28z m229 -130 c91 -62 169 -116 172 -121 3 -5 -26 -39 -64 -77 l-69
-68 -114 174 c-112 172 -137 212 -137 224 0 9 32 -11 212 -132z m356 -231 c64
-44 142 -95 174 -116 l56 -37 -141 -139 c-78 -77 -144 -140 -147 -140 -3 0
-33 42 -65 93 -33 50 -83 127 -112 171 l-52 79 19 27 c20 28 137 140 146 140
3 0 58 -35 122 -78z m409 -266 c83 -55 130 -93 127 -101 -3 -7 -24 -26 -47
-41 -47 -31 -242 -223 -303 -299 l-41 -49 -92 138 -92 139 26 37 c51 73 266
274 286 267 3 -1 64 -42 136 -91z m309 -218 c75 -51 148 -103 163 -116 l26
-22 -21 -18 c-12 -9 -50 -37 -85 -62 -92 -64 -266 -241 -333 -338 -32 -45 -62
-80 -67 -76 -16 10 -219 317 -219 331 0 35 120 180 233 280 60 54 144 113 159
113 5 0 70 -42 144 -92z"/>
</g>
</svg>
